<svg xmlns="http://www.w3.org/2000/svg" viewBox="0 0 1440 320"><path fill="#d3eaf8" fill-opacity="1" d="M0,96L30,106.7C60,117,120,139,180,160C240,181,300,203,360,186.7C420,171,480,117,540,117.3C600,117,660,171,720,160C780,149,840,75,900,64C960,53,1020,107,1080,144C1140,181,1200,203,1260,186.7C1320,171,1380,117,1410,90.7L1440,64L1440,320L1410,320C1380,320,1320,320,1260,320C1200,320,1140,320,1080,320C1020,320,960,320,900,320C840,320,780,320,720,320C660,320,600,320,540,320C480,320,420,320,360,320C300,320,240,320,180,320C120,320,60,320,30,320L0,320Z"></path></svg>
